<?xml version="1.0" encoding="UTF-8" standalone="no"?>
<!-- Created with Inkscape (http://www.inkscape.org/) -->

<svg
   xmlns:dc="http://purl.org/dc/elements/1.1/"
   xmlns:cc="http://creativecommons.org/ns#"
   xmlns:rdf="http://www.w3.org/1999/02/22-rdf-syntax-ns#"
   xmlns:svg="http://www.w3.org/2000/svg"
   xmlns="http://www.w3.org/2000/svg"
   xmlns:sodipodi="http://sodipodi.sourceforge.net/DTD/sodipodi-0.dtd"
   xmlns:inkscape="http://www.inkscape.org/namespaces/inkscape"
   width="700"
   height="700"
   viewBox="0 0 700.00001 700.00001"
   id="svg7150"
   version="1.1"
   inkscape:version="0.91 r13725"
   sodipodi:docname="archaeaLogo.svg"
   style="enable-background:new">
  <defs
     id="defs7152" />
  <sodipodi:namedview
     id="base"
     pagecolor="#ffffff"
     bordercolor="#666666"
     borderopacity="1.0"
     inkscape:pageopacity="0.0"
     inkscape:pageshadow="2"
     inkscape:zoom="0.71"
     inkscape:cx="412.21336"
     inkscape:cy="448.12838"
     inkscape:document-units="px"
     inkscape:current-layer="layer1"
     showgrid="false"
     units="px"
     inkscape:showpageshadow="false"
     inkscape:window-width="1600"
     inkscape:window-height="837"
     inkscape:window-x="0"
     inkscape:window-y="30"
     inkscape:window-maximized="1" />
  <metadata
     id="metadata7155">
    <rdf:RDF>
      <cc:Work
         rdf:about="">
        <dc:format>image/svg+xml</dc:format>
        <dc:type
           rdf:resource="http://purl.org/dc/dcmitype/StillImage" />
        <dc:title></dc:title>
      </cc:Work>
    </rdf:RDF>
  </metadata>
  <g
     inkscape:label="Layer 1"
     inkscape:groupmode="layer"
     id="layer1"
     transform="translate(0,-352.36216)">
    <path
       style="fill:#000000"
       d="m 257.2323,1036.3284 c -23.6118,-8.1805 -32.8535,-35.6055 -19.0195,-56.44099 1.9243,-2.89825 5.3175,-6.55657 7.5403,-8.12958 l 4.0415,-2.86002 0.021,-96.88383 0.021,-96.88384 -7.0516,-7.42347 c -49.03934,-51.62566 -56.15793,-127.75434 -17.468,-186.80886 36.8731,-56.28145 109.3538,-80.93843 172.9016,-58.81887 103.7335,36.10725 134.6684,165.62063 58.6695,245.62773 l -7.0515,7.42347 0,21.13384 c 0,11.6236 0.287,21.13383 0.6379,21.13383 2.323,0 18.838,-13.5085 29.3446,-24.00257 34.4902,-34.44913 52.3485,-75.99292 53.7321,-124.99743 2.551,-90.35676 -58.0897,-166.63681 -147.6642,-185.74678 -18.6938,-3.98816 -53.4105,-3.98738 -72.1088,0.002 -102.2666,21.81703 -164.92197,117.8096 -143.8223,220.34626 2.51065,12.20088 2.08762,11.55478 8.95074,13.67054 32.17826,9.91991 35.52286,53.98548 5.25769,69.27102 -8.903,4.49649 -22.98746,4.36956 -32.46573,-0.29258 -7.83239,-3.85258 -13.97447,-10.12418 -17.70163,-18.07492 -3.6953,-7.88276 -3.85665,-23.16082 -0.32038,-30.33688 l 2.29724,-4.66172 -1.99752,-6.83828 C 128.16017,705.82512 125.5338,686.47925 125.51336,663.39781 125.38661,520.25733 257.033,413.95985 397.3366,443.91505 c 76.4531,16.32296 140.7227,73.70948 165.2904,147.58841 19.1457,57.57379 14.7131,119.47279 -12.3857,172.96149 -22.7458,44.89651 -58.1884,79.52962 -103.9403,101.56622 -11.4814,5.53005 -32.2011,13.36664 -35.3411,13.36664 -0.8196,0 -1.1104,-16.83123 -1.0754,-62.25 l 0.048,-62.25 5.5856,-4 C 447.6729,727.87087 465.0812,683.09425 457.4333,643.08582 449.4,601.06103 416.5895,566.4819 375.6954,556.94196 l -5.8588,-1.36677 0,39.49464 c 0,21.72206 -0.3375,39.32168 -0.75,39.11027 -19.2028,-9.84139 -37.9494,-5.95209 -48.0595,9.97069 -13.2682,20.8968 -2.8372,47.00194 21.1353,52.89411 8.8525,2.17586 16.557,0.90885 26.9242,-4.42769 0.4125,-0.21234 0.75,50.72643 0.75,113.19727 l 0,113.58333 2.6216,0 c 10.7378,0 38.801,-5.84667 57.3784,-11.95417 93.6469,-30.78745 159.3637,-109.30921 174.6999,-208.74064 3.891,-25.22694 2.0801,-64.71048 -4.2657,-93.00407 C 581.0329,519.92326 516.1064,448.10365 432.3366,419.9356 390.0601,405.7199 343.0909,402.75973 298.9077,411.5264 195.42558,432.05894 114.11923,515.93079 96.425335,620.39781 c -12.79902,75.56698 8.670495,152.27766 59.023805,210.89234 13.57368,15.80068 14.07232,16.19879 18.89037,15.08192 29.95233,-6.94321 55.48719,25.04245 41.99969,52.60994 -17.08581,34.92207 -69.95457,23.6094 -70.65706,-15.11895 l -0.0901,-4.96525 -9.74008,-10 c -44.746265,-45.94038 -72.974865,-105.57085 -81.186745,-171.5 -1.69113,-13.57727 -1.69967,-54.31946 -0.0143,-68 C 75.554545,459.72291 230.966,342.82611 398.8365,370.50962 c 111.5467,18.39515 204.1447,100.57306 235.973,209.41883 13.5603,46.37305 15.5133,98.6259 5.437,145.46936 -29.5397,137.3275 -150.5593,234.87447 -291.535,234.98968 -6.9438,0.006 -14.0313,-0.27093 -15.75,-0.61468 l -3.125,-0.625 0,-111.80315 0,-111.80315 -5.75,-2.1308 c -64.015,-23.72229 -64.7988,-114.64997 -1.2033,-139.6008 l 6.9534,-2.72807 0,-17.75333 0,-17.75332 -5.8589,1.36677 c -19.0435,4.44256 -36.4677,14.31697 -51.3486,29.09961 -46.8191,46.51007 -41.815,123.83547 10.6325,164.29843 l 5.575,4.30103 4e-4,107.12839 5e-4,107.12839 4.7966,4.13069 c 12.3199,10.60951 16.0452,29.8791 8.6123,44.5473 -8.4161,16.6082 -27.8438,24.7015 -45.0148,18.7526 z m 19.605,-22.874 c 12.4594,-8.6741 6.9588,-27.04062 -8.1022,-27.05285 -10.5513,-0.009 -17.6324,10.59976 -13.5359,20.27835 3.5165,8.3082 14.497,11.746 21.6381,6.7745 z M 190.83777,895.14781 c 12.45025,-8.49841 6.45072,-27.22477 -8.64912,-26.99649 -7.54884,0.11412 -14.35336,6.96463 -14.34984,14.44683 0.005,11.505 13.63439,18.94181 22.99896,12.54966 z m -16.30918,-129.6968 c 10.78071,-4.89448 10.92486,-20.85208 0.23759,-26.30165 -11.65186,-5.94142 -25.42301,5.89633 -20.86231,17.93335 3.3058,8.72497 12.03651,12.26738 20.62472,8.3683 z"
       id="path8666"
       inkscape:connector-curvature="0" />
  </g>
</svg>
